<mxfile host="drawio-plugin" modified="2022-05-05T18:34:03.342Z" agent="5.0 (Windows NT 6.2; Win64; x64) AppleWebKit/537.36 (KHTML, like Gecko) Chrome/97.0.4692.45 Safari/537.36" etag="DzewDB53_TfCQhhGX8G0" version="15.5.4" type="embed"><diagram id="X9tGTNVSjQO08OrWXsAJ" name="Page-1"><mxGraphModel dx="1918" dy="865" grid="0" gridSize="10" guides="1" tooltips="1" connect="1" arrows="1" fold="1" page="0" pageScale="1" pageWidth="850" pageHeight="1100" math="0" shadow="0"><root><mxCell id="0"/><mxCell id="1" parent="0"/><mxCell id="35" value="package stream" style="swimlane;" vertex="1" parent="1"><mxGeometry x="-133" y="303" width="797" height="343" as="geometry"/></mxCell><mxCell id="37" value="struct Item" style="swimlane;fontStyle=0;childLayout=stackLayout;horizontal=1;startSize=30;horizontalStack=0;resizeParent=1;resizeParentMax=0;resizeLast=0;collapsible=1;marginBottom=0;fillColor=#e3c800;fontColor=#000000;strokeColor=#B09500;" vertex="1" parent="35"><mxGeometry x="6" y="33" width="140" height="60" as="geometry"/></mxCell><mxCell id="38" value="content [] byte" style="text;strokeColor=none;fillColor=none;align=left;verticalAlign=middle;spacingLeft=4;spacingRight=4;overflow=hidden;points=[[0,0.5],[1,0.5]];portConstraint=eastwest;rotatable=0;" vertex="1" parent="37"><mxGeometry y="30" width="140" height="30" as="geometry"/></mxCell><mxCell id="60" value="implements" style="edgeStyle=orthogonalEdgeStyle;rounded=0;orthogonalLoop=1;jettySize=auto;html=1;exitX=0.25;exitY=0;exitDx=0;exitDy=0;" edge="1" parent="35" source="45" target="48"><mxGeometry relative="1" as="geometry"/></mxCell><mxCell id="62" value="implements" style="edgeStyle=orthogonalEdgeStyle;rounded=0;orthogonalLoop=1;jettySize=auto;html=1;exitX=0.75;exitY=0;exitDx=0;exitDy=0;entryX=0.478;entryY=0.967;entryDx=0;entryDy=0;entryPerimeter=0;" edge="1" parent="35" source="45" target="53"><mxGeometry relative="1" as="geometry"/></mxCell><mxCell id="45" value="struct stream" style="swimlane;fontStyle=0;childLayout=stackLayout;horizontal=1;startSize=30;horizontalStack=0;resizeParent=1;resizeParentMax=0;resizeLast=0;collapsible=1;marginBottom=0;" vertex="1" parent="35"><mxGeometry x="328" y="164" width="240" height="120" as="geometry"/></mxCell><mxCell id="47" value="items []Item " style="text;strokeColor=none;fillColor=none;align=left;verticalAlign=middle;spacingLeft=4;spacingRight=4;overflow=hidden;points=[[0,0.5],[1,0.5]];portConstraint=eastwest;rotatable=0;" vertex="1" parent="45"><mxGeometry y="30" width="240" height="30" as="geometry"/></mxCell><mxCell id="46" value="buffer chan&lt;- Item" style="text;strokeColor=none;fillColor=none;align=left;verticalAlign=middle;spacingLeft=4;spacingRight=4;overflow=hidden;points=[[0,0.5],[1,0.5]];portConstraint=eastwest;rotatable=0;" vertex="1" parent="45"><mxGeometry y="60" width="240" height="30" as="geometry"/></mxCell><mxCell id="68" value="subscribers map[uuid.UUID] Callback" style="text;strokeColor=none;fillColor=none;align=left;verticalAlign=middle;spacingLeft=4;spacingRight=4;overflow=hidden;points=[[0,0.5],[1,0.5]];portConstraint=eastwest;rotatable=0;" vertex="1" parent="45"><mxGeometry y="90" width="240" height="30" as="geometry"/></mxCell><mxCell id="48" value="interface Publisher" style="swimlane;fontStyle=0;childLayout=stackLayout;horizontal=1;startSize=30;horizontalStack=0;resizeParent=1;resizeParentMax=0;resizeLast=0;collapsible=1;marginBottom=0;fillColor=#e3c800;fontColor=#000000;strokeColor=#B09500;" vertex="1" parent="35"><mxGeometry x="182" y="33" width="209" height="60" as="geometry"/></mxCell><mxCell id="49" value="Publish (item Item)" style="text;strokeColor=none;fillColor=none;align=left;verticalAlign=middle;spacingLeft=4;spacingRight=4;overflow=hidden;points=[[0,0.5],[1,0.5]];portConstraint=eastwest;rotatable=0;" vertex="1" parent="48"><mxGeometry y="30" width="209" height="30" as="geometry"/></mxCell><mxCell id="52" value="interface Subscriber" style="swimlane;fontStyle=0;childLayout=stackLayout;horizontal=1;startSize=30;horizontalStack=0;resizeParent=1;resizeParentMax=0;resizeLast=0;collapsible=1;marginBottom=0;fillColor=#e3c800;fontColor=#000000;strokeColor=#B09500;" vertex="1" parent="35"><mxGeometry x="397" y="33" width="249" height="60" as="geometry"/></mxCell><mxCell id="53" value="Subscribe (callback Callback)  uuid.UUID" style="text;strokeColor=none;fillColor=none;align=left;verticalAlign=middle;spacingLeft=4;spacingRight=4;overflow=hidden;points=[[0,0.5],[1,0.5]];portConstraint=eastwest;rotatable=0;" vertex="1" parent="52"><mxGeometry y="30" width="249" height="30" as="geometry"/></mxCell></root></mxGraphModel></diagram></mxfile>